# xmcd
#
# Track frame offsets:
# 150
# 15533
# 36741
# 51180
# 65650
# 82892
# 98220
# 114042
# 132452
# 146135
# 159340
# 171863
# 184934
#
# Disc length: 2636 seconds
#
#
# Revision: 0
# Processed by: cddbd v1.5.2PL0 Copyright (c) Steve Scherf et al.
# Submitted via: FreeRIP 2.944 
#
DISCID=b20a4a0d
DTITLE=alison krauss - new favorites
DYEAR=2001
DGENRE=Bluegrass
TTITLE0=Let Me Touch You For A While
TTITLE1=The Boy Who Wouldn't Hoe Corn
TTITLE2=The Lucky One
TTITLE3=Choctaw Hayride
TTITLE4=Crazy Faith
TTITLE5=Momma Cried
TTITLE6=I'm Gone
TTITLE7=Daylight
TTITLE8=Bright Sunny South
TTITLE9=Stars
TTITLE10=It all comes down to you
TTITLE11=Take me for Longing
TTITLE12=New Favorite
EXTD=
EXTT0=
EXTT1=
EXTT2=
EXTT3=
EXTT4=
EXTT5=
EXTT6=
EXTT7=
EXTT8=
EXTT9=
EXTT10=
EXTT11=
EXTT12=
PLAYORDER=
